<svg xmlns="http://www.w3.org/2000/svg" xmlns:xlink="http://www.w3.org/1999/xlink" width="500" zoomAndPan="magnify" viewBox="0 0 375 374.999991" height="500" preserveAspectRatio="xMidYMid meet" version="1.0"><defs><g/><clipPath id="89f860eb7f"><path d="M 49.890625 159.113281 L 126.390625 159.113281 L 126.390625 216 L 49.890625 216 Z M 49.890625 159.113281 " clip-rule="nonzero"/></clipPath></defs><g fill="#2b2b2b" fill-opacity="1"><g transform="translate(137.141818, 190.383393)"><g><path d="M 1.546875 -0.421875 L 1.546875 -20.3125 C 1.546875 -20.59375 1.6875 -20.734375 1.96875 -20.734375 L 3.125 -20.734375 C 3.40625 -20.734375 3.546875 -20.59375 3.546875 -20.3125 L 3.546875 -19.828125 C 3.546875 -19.546875 3.6875 -19.40625 3.96875 -19.40625 L 4.453125 -19.40625 C 4.734375 -19.40625 4.875 -19.265625 4.875 -18.984375 L 4.875 -18.5 C 4.875 -18.21875 5.015625 -18.078125 5.296875 -18.078125 L 5.78125 -18.078125 C 6.0625 -18.078125 6.203125 -17.9375 6.203125 -17.65625 L 6.203125 -17.171875 C 6.203125 -16.890625 6.34375 -16.75 6.625 -16.75 L 7.109375 -16.75 C 7.390625 -16.75 7.53125 -16.609375 7.53125 -16.328125 L 7.53125 -15.84375 C 7.53125 -15.5625 7.671875 -15.421875 7.953125 -15.421875 L 8.4375 -15.421875 C 8.71875 -15.421875 8.859375 -15.28125 8.859375 -15 L 8.859375 -14.515625 C 8.859375 -14.234375 9 -14.09375 9.28125 -14.09375 L 9.765625 -14.09375 C 10.046875 -14.09375 10.1875 -13.953125 10.1875 -13.671875 L 10.1875 -13.1875 C 10.1875 -12.90625 10.328125 -12.765625 10.609375 -12.765625 L 11.09375 -12.765625 C 11.375 -12.765625 11.515625 -12.90625 11.515625 -13.1875 L 11.515625 -13.671875 C 11.515625 -13.953125 11.65625 -14.09375 11.9375 -14.09375 L 12.421875 -14.09375 C 12.703125 -14.09375 12.84375 -14.234375 12.84375 -14.515625 L 12.84375 -15 C 12.84375 -15.28125 12.984375 -15.421875 13.265625 -15.421875 L 13.765625 -15.421875 C 14.046875 -15.421875 14.1875 -15.5625 14.1875 -15.84375 L 14.1875 -16.328125 C 14.1875 -16.609375 14.320312 -16.75 14.59375 -16.75 L 15.09375 -16.75 C 15.375 -16.75 15.515625 -16.890625 15.515625 -17.171875 L 15.515625 -17.65625 C 15.515625 -17.9375 15.65625 -18.078125 15.9375 -18.078125 L 16.421875 -18.078125 C 16.703125 -18.078125 16.84375 -18.21875 16.84375 -18.5 L 16.84375 -18.984375 C 16.84375 -19.265625 16.984375 -19.40625 17.265625 -19.40625 L 17.765625 -19.40625 C 18.046875 -19.40625 18.1875 -19.546875 18.1875 -19.828125 L 18.1875 -20.3125 C 18.1875 -20.59375 18.328125 -20.734375 18.609375 -20.734375 L 19.734375 -20.734375 C 20.015625 -20.734375 20.15625 -20.59375 20.15625 -20.3125 L 20.15625 -0.421875 C 20.15625 -0.140625 20.015625 0 19.734375 0 L 14.59375 0 C 14.320312 0 14.1875 -0.140625 14.1875 -0.421875 L 14.1875 -12.34375 C 14.1875 -12.625 14.046875 -12.765625 13.765625 -12.765625 L 13.265625 -12.765625 C 12.984375 -12.765625 12.84375 -12.625 12.84375 -12.34375 L 12.84375 -11.859375 C 12.84375 -11.578125 12.703125 -11.4375 12.421875 -11.4375 L 11.9375 -11.4375 C 11.65625 -11.4375 11.515625 -11.296875 11.515625 -11.015625 L 11.515625 -10.53125 C 11.515625 -10.25 11.375 -10.109375 11.09375 -10.109375 L 10.609375 -10.109375 C 10.328125 -10.109375 10.1875 -10.25 10.1875 -10.53125 L 10.1875 -11.015625 C 10.1875 -11.296875 10.046875 -11.4375 9.765625 -11.4375 L 9.28125 -11.4375 C 9 -11.4375 8.859375 -11.578125 8.859375 -11.859375 L 8.859375 -12.34375 C 8.859375 -12.625 8.71875 -12.765625 8.4375 -12.765625 L 7.953125 -12.765625 C 7.671875 -12.765625 7.53125 -12.625 7.53125 -12.34375 L 7.53125 -0.421875 C 7.53125 -0.140625 7.390625 0 7.109375 0 L 1.96875 0 C 1.6875 0 1.546875 -0.140625 1.546875 -0.421875 Z M 1.546875 -0.421875 "/></g></g></g><g fill="#2b2b2b" fill-opacity="1"><g transform="translate(163.098094, 190.383393)"><g><path d="M 1.546875 -0.421875 L 1.546875 -15 C 1.546875 -15.28125 1.6875 -15.421875 1.96875 -15.421875 L 2.703125 -15.421875 C 2.984375 -15.421875 3.125 -15.5625 3.125 -15.84375 L 3.125 -16.328125 C 3.125 -16.609375 3.265625 -16.75 3.546875 -16.75 L 4.03125 -16.75 C 4.3125 -16.75 4.453125 -16.890625 4.453125 -17.171875 L 4.453125 -17.65625 C 4.453125 -17.9375 4.59375 -18.078125 4.875 -18.078125 L 5.359375 -18.078125 C 5.640625 -18.078125 5.78125 -18.21875 5.78125 -18.5 L 5.78125 -18.984375 C 5.78125 -19.265625 5.921875 -19.40625 6.203125 -19.40625 L 6.421875 -19.40625 C 6.703125 -19.40625 6.84375 -19.546875 6.84375 -19.828125 L 6.84375 -20.3125 C 6.84375 -20.59375 6.984375 -20.734375 7.265625 -20.734375 L 14.421875 -20.734375 C 14.703125 -20.734375 14.84375 -20.59375 14.84375 -20.3125 L 14.84375 -19.828125 C 14.84375 -19.546875 14.984375 -19.40625 15.265625 -19.40625 L 15.75 -19.40625 C 16.03125 -19.40625 16.171875 -19.265625 16.171875 -18.984375 L 16.171875 -0.421875 C 16.171875 -0.140625 16.03125 0 15.75 0 L 10.609375 0 C 10.328125 0 10.1875 -0.140625 10.1875 -0.421875 L 10.1875 -7.46875 C 10.1875 -7.75 10.046875 -7.890625 9.765625 -7.890625 L 9.28125 -7.890625 C 9 -7.890625 8.859375 -7.75 8.859375 -7.46875 L 8.859375 -6.984375 C 8.859375 -6.703125 8.71875 -6.5625 8.4375 -6.5625 L 7.953125 -6.5625 C 7.671875 -6.5625 7.53125 -6.421875 7.53125 -6.140625 L 7.53125 -0.421875 C 7.53125 -0.140625 7.390625 0 7.109375 0 L 1.96875 0 C 1.6875 0 1.546875 -0.140625 1.546875 -0.421875 Z M 7.953125 -9.078125 L 8.4375 -9.078125 C 8.71875 -9.078125 8.859375 -9.21875 8.859375 -9.5 L 8.859375 -10 C 8.859375 -10.269531 9 -10.40625 9.28125 -10.40625 L 9.765625 -10.40625 C 10.046875 -10.40625 10.1875 -10.546875 10.1875 -10.828125 L 10.1875 -18.984375 C 10.1875 -19.265625 10.046875 -19.40625 9.765625 -19.40625 L 9.28125 -19.40625 C 9 -19.40625 8.859375 -19.265625 8.859375 -18.984375 L 8.859375 -18.5 C 8.859375 -18.21875 8.71875 -18.078125 8.4375 -18.078125 L 7.953125 -18.078125 C 7.671875 -18.078125 7.53125 -17.9375 7.53125 -17.65625 L 7.53125 -9.5 C 7.53125 -9.21875 7.671875 -9.078125 7.953125 -9.078125 Z M 7.953125 -9.078125 "/></g></g></g><g fill="#2b2b2b" fill-opacity="1"><g transform="translate(185.068082, 190.383393)"><g><path d="M 1.546875 -0.421875 L 1.546875 -20.3125 C 1.546875 -20.59375 1.6875 -20.734375 1.96875 -20.734375 L 3.140625 -20.734375 C 3.421875 -20.734375 3.5625 -20.59375 3.5625 -20.3125 L 3.5625 -19.828125 C 3.5625 -19.546875 3.703125 -19.40625 3.984375 -19.40625 L 4.46875 -19.40625 C 4.75 -19.40625 4.890625 -19.265625 4.890625 -18.984375 L 4.890625 -18.5 C 4.890625 -18.21875 5.03125 -18.078125 5.3125 -18.078125 L 5.8125 -18.078125 C 6.082031 -18.078125 6.21875 -17.9375 6.21875 -17.65625 L 6.21875 -17.171875 C 6.21875 -16.890625 6.359375 -16.75 6.640625 -16.75 L 7.140625 -16.75 C 7.421875 -16.75 7.5625 -16.609375 7.5625 -16.328125 L 7.5625 -15.84375 C 7.5625 -15.5625 7.695312 -15.421875 7.96875 -15.421875 L 8.46875 -15.421875 C 8.75 -15.421875 8.890625 -15.28125 8.890625 -15 L 8.890625 -14.515625 C 8.890625 -14.234375 9.03125 -14.09375 9.3125 -14.09375 L 9.796875 -14.09375 C 10.078125 -14.09375 10.21875 -13.953125 10.21875 -13.671875 L 10.21875 -13.1875 C 10.21875 -12.90625 10.359375 -12.765625 10.640625 -12.765625 L 11.125 -12.765625 C 11.40625 -12.765625 11.546875 -12.625 11.546875 -12.34375 L 11.546875 -11.859375 C 11.546875 -11.578125 11.6875 -11.4375 11.96875 -11.4375 L 12.453125 -11.4375 C 12.734375 -11.4375 12.875 -11.578125 12.875 -11.859375 L 12.875 -12.34375 C 12.875 -12.625 12.734375 -12.765625 12.453125 -12.765625 L 11.96875 -12.765625 C 11.6875 -12.765625 11.546875 -12.90625 11.546875 -13.1875 L 11.546875 -13.671875 C 11.546875 -13.953125 11.40625 -14.09375 11.125 -14.09375 L 10.640625 -14.09375 C 10.359375 -14.09375 10.21875 -14.234375 10.21875 -14.515625 L 10.21875 -20.3125 C 10.21875 -20.59375 10.359375 -20.734375 10.640625 -20.734375 L 15.78125 -20.734375 C 16.0625 -20.734375 16.203125 -20.59375 16.203125 -20.3125 L 16.203125 -0.421875 C 16.203125 -0.140625 16.0625 0 15.78125 0 L 10.640625 0 C 10.359375 0 10.21875 -0.140625 10.21875 -0.421875 L 10.21875 -11.015625 C 10.21875 -11.296875 10.078125 -11.4375 9.796875 -11.4375 L 9.3125 -11.4375 C 9.03125 -11.4375 8.890625 -11.578125 8.890625 -11.859375 L 8.890625 -12.34375 C 8.890625 -12.625 8.75 -12.765625 8.46875 -12.765625 L 7.953125 -12.765625 C 7.671875 -12.765625 7.53125 -12.625 7.53125 -12.34375 L 7.53125 -0.421875 C 7.53125 -0.140625 7.390625 0 7.109375 0 L 1.96875 0 C 1.6875 0 1.546875 -0.140625 1.546875 -0.421875 Z M 1.546875 -0.421875 "/></g></g></g><g fill="#2b2b2b" fill-opacity="1"><g transform="translate(207.060214, 190.383393)"><g><path d="M 1.546875 -0.421875 L 1.546875 -20.3125 C 1.546875 -20.59375 1.6875 -20.734375 1.96875 -20.734375 L 7.109375 -20.734375 C 7.390625 -20.734375 7.53125 -20.59375 7.53125 -20.3125 L 7.53125 -0.421875 C 7.53125 -0.140625 7.390625 0 7.109375 0 L 1.96875 0 C 1.6875 0 1.546875 -0.140625 1.546875 -0.421875 Z M 1.546875 -0.421875 "/></g></g></g><g fill="#2b2b2b" fill-opacity="1"><g transform="translate(220.393234, 190.383393)"><g><path d="M 2.328125 -0.421875 L 2.328125 -0.90625 C 2.328125 -1.1875 2.1875 -1.328125 1.90625 -1.328125 L 1.421875 -1.328125 C 1.140625 -1.328125 1 -1.46875 1 -1.75 L 1 -5.5625 C 1 -5.84375 1.140625 -5.984375 1.421875 -5.984375 L 6.5625 -5.984375 C 6.84375 -5.984375 6.984375 -5.84375 6.984375 -5.5625 L 6.984375 -1.75 C 6.984375 -1.46875 7.125 -1.328125 7.40625 -1.328125 L 7.890625 -1.328125 C 8.171875 -1.328125 8.3125 -1.46875 8.3125 -1.75 L 8.3125 -2.234375 C 8.3125 -2.515625 8.453125 -2.65625 8.734375 -2.65625 L 9.453125 -2.65625 C 9.734375 -2.65625 9.875 -2.796875 9.875 -3.078125 L 9.875 -8.359375 C 9.875 -8.640625 9.734375 -8.78125 9.453125 -8.78125 L 8.96875 -8.78125 C 8.6875 -8.78125 8.546875 -8.914062 8.546875 -9.1875 L 8.546875 -9.6875 C 8.546875 -9.96875 8.40625 -10.109375 8.125 -10.109375 L 4.328125 -10.109375 C 4.046875 -10.109375 3.90625 -10.25 3.90625 -10.53125 L 3.90625 -11.015625 C 3.90625 -11.296875 3.765625 -11.4375 3.484375 -11.4375 L 2.984375 -11.4375 C 2.703125 -11.4375 2.5625 -11.578125 2.5625 -11.859375 L 2.5625 -12.3125 C 2.5625 -12.613281 2.414062 -12.765625 2.125 -12.765625 L 1.6875 -12.765625 C 1.382812 -12.765625 1.234375 -12.910156 1.234375 -13.203125 L 1.234375 -17.640625 C 1.234375 -17.929688 1.382812 -18.078125 1.6875 -18.078125 L 2.125 -18.078125 C 2.414062 -18.078125 2.5625 -18.222656 2.5625 -18.515625 L 2.5625 -18.984375 C 2.5625 -19.265625 2.703125 -19.40625 2.984375 -19.40625 L 3.484375 -19.40625 C 3.765625 -19.40625 3.90625 -19.546875 3.90625 -19.828125 L 3.90625 -20.3125 C 3.90625 -20.59375 4.046875 -20.734375 4.328125 -20.734375 L 12.5625 -20.734375 C 12.84375 -20.734375 12.984375 -20.59375 12.984375 -20.3125 L 12.984375 -19.828125 C 12.984375 -19.546875 13.125 -19.40625 13.40625 -19.40625 L 15 -19.40625 C 15.28125 -19.40625 15.421875 -19.265625 15.421875 -18.984375 L 15.421875 -15.171875 C 15.421875 -14.890625 15.28125 -14.75 15 -14.75 L 11.625 -14.75 C 11.351562 -14.75 11.21875 -14.890625 11.21875 -15.171875 L 11.21875 -15.671875 C 11.21875 -15.941406 11.078125 -16.078125 10.796875 -16.078125 L 10.296875 -16.078125 C 10.015625 -16.078125 9.875 -16.21875 9.875 -16.5 L 9.875 -18.984375 C 9.875 -19.265625 9.734375 -19.40625 9.453125 -19.40625 L 8.96875 -19.40625 C 8.6875 -19.40625 8.546875 -19.265625 8.546875 -18.984375 L 8.546875 -18.5 C 8.546875 -18.21875 8.40625 -18.078125 8.125 -18.078125 L 7.640625 -18.078125 C 7.359375 -18.078125 7.21875 -17.9375 7.21875 -17.65625 L 7.21875 -13.1875 C 7.21875 -12.90625 7.359375 -12.765625 7.640625 -12.765625 L 8.359375 -12.765625 C 8.640625 -12.765625 8.78125 -12.625 8.78125 -12.34375 L 8.78125 -11.859375 C 8.78125 -11.578125 8.914062 -11.4375 9.1875 -11.4375 L 12.78125 -11.4375 C 13.0625 -11.4375 13.203125 -11.296875 13.203125 -11.015625 L 13.203125 -10.53125 C 13.203125 -10.25 13.34375 -10.109375 13.625 -10.109375 L 14.109375 -10.109375 C 14.390625 -10.109375 14.53125 -9.96875 14.53125 -9.6875 L 14.53125 -9.21875 C 14.53125 -8.925781 14.679688 -8.78125 14.984375 -8.78125 L 15.421875 -8.78125 C 15.710938 -8.78125 15.859375 -8.628906 15.859375 -8.328125 L 15.859375 -3.109375 C 15.859375 -2.804688 15.710938 -2.65625 15.421875 -2.65625 L 14.984375 -2.65625 C 14.679688 -2.65625 14.53125 -2.507812 14.53125 -2.21875 L 14.53125 -1.75 C 14.53125 -1.46875 14.390625 -1.328125 14.109375 -1.328125 L 13.625 -1.328125 C 13.34375 -1.328125 13.203125 -1.1875 13.203125 -0.90625 L 13.203125 -0.421875 C 13.203125 -0.140625 13.070312 0 12.8125 0 L 2.71875 0 C 2.457031 0 2.328125 -0.140625 2.328125 -0.421875 Z M 2.328125 -0.421875 "/></g></g></g><g fill="#2b2b2b" fill-opacity="1"><g transform="translate(241.720984, 190.383393)"><g><path d="M 1.546875 -0.421875 L 1.546875 -20.3125 C 1.546875 -20.59375 1.6875 -20.734375 1.96875 -20.734375 L 7.109375 -20.734375 C 7.390625 -20.734375 7.53125 -20.59375 7.53125 -20.3125 L 7.53125 -11.390625 C 7.53125 -11.109375 7.671875 -10.96875 7.953125 -10.96875 L 8.46875 -10.96875 C 8.75 -10.96875 8.890625 -11.109375 8.890625 -11.390625 L 8.890625 -11.875 C 8.890625 -12.15625 9.03125 -12.296875 9.3125 -12.296875 L 9.765625 -12.296875 C 10.046875 -12.296875 10.1875 -12.4375 10.1875 -12.71875 L 10.1875 -20.3125 C 10.1875 -20.59375 10.328125 -20.734375 10.609375 -20.734375 L 15.75 -20.734375 C 16.03125 -20.734375 16.171875 -20.59375 16.171875 -20.3125 L 16.171875 -0.421875 C 16.171875 -0.140625 16.03125 0 15.75 0 L 10.609375 0 C 10.328125 0 10.1875 -0.140625 10.1875 -0.421875 L 10.1875 -9.34375 C 10.1875 -9.625 10.046875 -9.765625 9.765625 -9.765625 L 9.3125 -9.765625 C 9.03125 -9.765625 8.890625 -9.625 8.890625 -9.34375 L 8.890625 -8.859375 C 8.890625 -8.578125 8.75 -8.4375 8.46875 -8.4375 L 7.953125 -8.4375 C 7.671875 -8.4375 7.53125 -8.296875 7.53125 -8.015625 L 7.53125 -0.421875 C 7.53125 -0.140625 7.390625 0 7.109375 0 L 1.96875 0 C 1.6875 0 1.546875 -0.140625 1.546875 -0.421875 Z M 1.546875 -0.421875 "/></g></g></g><g fill="#2b2b2b" fill-opacity="1"><g transform="translate(241.482161, 206.141696)"><g><path d="M 2.40625 -0.171875 L 2.40625 -3.578125 C 2.40625 -3.703125 2.347656 -3.765625 2.234375 -3.765625 L 1.625 -3.765625 C 1.507812 -3.765625 1.453125 -3.820312 1.453125 -3.9375 L 1.453125 -4.125 C 1.453125 -4.238281 1.394531 -4.296875 1.28125 -4.296875 L 1.078125 -4.296875 C 0.960938 -4.296875 0.90625 -4.351562 0.90625 -4.46875 L 0.90625 -4.671875 C 0.90625 -4.785156 0.847656 -4.84375 0.734375 -4.84375 L 0.53125 -4.84375 C 0.414062 -4.84375 0.359375 -4.898438 0.359375 -5.015625 L 0.359375 -8.328125 C 0.359375 -8.441406 0.414062 -8.5 0.53125 -8.5 L 2.640625 -8.5 C 2.753906 -8.5 2.8125 -8.441406 2.8125 -8.328125 L 2.8125 -4.46875 C 2.8125 -4.351562 2.867188 -4.296875 2.984375 -4.296875 L 3.1875 -4.296875 C 3.300781 -4.296875 3.359375 -4.238281 3.359375 -4.125 L 3.359375 -3.9375 C 3.359375 -3.820312 3.414062 -3.765625 3.53125 -3.765625 L 3.734375 -3.765625 C 3.847656 -3.765625 3.90625 -3.820312 3.90625 -3.9375 L 3.90625 -4.125 C 3.90625 -4.238281 3.960938 -4.296875 4.078125 -4.296875 L 4.28125 -4.296875 C 4.394531 -4.296875 4.453125 -4.351562 4.453125 -4.46875 L 4.453125 -8.328125 C 4.453125 -8.441406 4.507812 -8.5 4.625 -8.5 L 6.734375 -8.5 C 6.847656 -8.5 6.90625 -8.441406 6.90625 -8.328125 L 6.90625 -5.015625 C 6.90625 -4.898438 6.847656 -4.84375 6.734375 -4.84375 L 6.53125 -4.84375 C 6.414062 -4.84375 6.359375 -4.785156 6.359375 -4.671875 L 6.359375 -4.46875 C 6.359375 -4.351562 6.300781 -4.296875 6.1875 -4.296875 L 5.984375 -4.296875 C 5.867188 -4.296875 5.8125 -4.238281 5.8125 -4.125 L 5.8125 -3.9375 C 5.8125 -3.820312 5.753906 -3.765625 5.640625 -3.765625 L 5.03125 -3.765625 C 4.914062 -3.765625 4.859375 -3.703125 4.859375 -3.578125 L 4.859375 -0.171875 C 4.859375 -0.0546875 4.800781 0 4.6875 0 L 2.578125 0 C 2.460938 0 2.40625 -0.0546875 2.40625 -0.171875 Z M 2.40625 -0.171875 "/></g></g></g><g fill="#2b2b2b" fill-opacity="1"><g transform="translate(255.998404, 206.141696)"><g><path d="M 0.640625 -0.171875 L 0.640625 -6.140625 C 0.640625 -6.253906 0.695312 -6.3125 0.8125 -6.3125 L 1.109375 -6.3125 C 1.222656 -6.3125 1.28125 -6.367188 1.28125 -6.484375 L 1.28125 -6.6875 C 1.28125 -6.800781 1.335938 -6.859375 1.453125 -6.859375 L 1.65625 -6.859375 C 1.769531 -6.859375 1.828125 -6.914062 1.828125 -7.03125 L 1.828125 -7.234375 C 1.828125 -7.347656 1.882812 -7.40625 2 -7.40625 L 2.203125 -7.40625 C 2.316406 -7.40625 2.375 -7.460938 2.375 -7.578125 L 2.375 -7.78125 C 2.375 -7.894531 2.429688 -7.953125 2.546875 -7.953125 L 2.625 -7.953125 C 2.75 -7.953125 2.8125 -8.007812 2.8125 -8.125 L 2.8125 -8.328125 C 2.8125 -8.441406 2.867188 -8.5 2.984375 -8.5 L 5.90625 -8.5 C 6.019531 -8.5 6.078125 -8.441406 6.078125 -8.328125 L 6.078125 -8.125 C 6.078125 -8.007812 6.132812 -7.953125 6.25 -7.953125 L 6.453125 -7.953125 C 6.566406 -7.953125 6.625 -7.894531 6.625 -7.78125 L 6.625 -0.171875 C 6.625 -0.0546875 6.566406 0 6.453125 0 L 4.34375 0 C 4.226562 0 4.171875 -0.0546875 4.171875 -0.171875 L 4.171875 -3.0625 C 4.171875 -3.175781 4.113281 -3.234375 4 -3.234375 L 3.796875 -3.234375 C 3.679688 -3.234375 3.625 -3.175781 3.625 -3.0625 L 3.625 -2.859375 C 3.625 -2.742188 3.566406 -2.6875 3.453125 -2.6875 L 3.265625 -2.6875 C 3.148438 -2.6875 3.09375 -2.628906 3.09375 -2.515625 L 3.09375 -0.171875 C 3.09375 -0.0546875 3.03125 0 2.90625 0 L 0.8125 0 C 0.695312 0 0.640625 -0.0546875 0.640625 -0.171875 Z M 3.265625 -3.71875 L 3.453125 -3.71875 C 3.566406 -3.71875 3.625 -3.773438 3.625 -3.890625 L 3.625 -4.09375 C 3.625 -4.207031 3.679688 -4.265625 3.796875 -4.265625 L 4 -4.265625 C 4.113281 -4.265625 4.171875 -4.320312 4.171875 -4.4375 L 4.171875 -7.78125 C 4.171875 -7.894531 4.113281 -7.953125 4 -7.953125 L 3.796875 -7.953125 C 3.679688 -7.953125 3.625 -7.894531 3.625 -7.78125 L 3.625 -7.578125 C 3.625 -7.460938 3.566406 -7.40625 3.453125 -7.40625 L 3.265625 -7.40625 C 3.148438 -7.40625 3.09375 -7.347656 3.09375 -7.234375 L 3.09375 -3.890625 C 3.09375 -3.773438 3.148438 -3.71875 3.265625 -3.71875 Z M 3.265625 -3.71875 "/></g></g></g><g fill="#2b2b2b" fill-opacity="1"><g transform="translate(270.514647, 206.141696)"><g><path d="M 0.640625 -0.171875 L 0.640625 -8.328125 C 0.640625 -8.441406 0.695312 -8.5 0.8125 -8.5 L 5.359375 -8.5 C 5.472656 -8.5 5.53125 -8.441406 5.53125 -8.328125 L 5.53125 -8.125 C 5.53125 -8.007812 5.585938 -7.953125 5.703125 -7.953125 L 5.90625 -7.953125 C 6.019531 -7.953125 6.078125 -7.894531 6.078125 -7.78125 L 6.078125 -7.578125 C 6.078125 -7.460938 6.132812 -7.40625 6.25 -7.40625 L 6.453125 -7.40625 C 6.566406 -7.40625 6.625 -7.347656 6.625 -7.234375 L 6.625 -1.265625 C 6.625 -1.148438 6.566406 -1.09375 6.453125 -1.09375 L 6.25 -1.09375 C 6.132812 -1.09375 6.078125 -1.035156 6.078125 -0.921875 L 6.078125 -0.71875 C 6.078125 -0.601562 6.019531 -0.546875 5.90625 -0.546875 L 5.703125 -0.546875 C 5.585938 -0.546875 5.53125 -0.488281 5.53125 -0.375 L 5.53125 -0.171875 C 5.53125 -0.0546875 5.472656 0 5.359375 0 L 0.8125 0 C 0.695312 0 0.640625 -0.0546875 0.640625 -0.171875 Z M 3.09375 -7.78125 L 3.09375 -0.71875 C 3.09375 -0.601562 3.148438 -0.546875 3.265625 -0.546875 L 3.453125 -0.546875 C 3.566406 -0.546875 3.625 -0.601562 3.625 -0.71875 L 3.625 -0.921875 C 3.625 -1.035156 3.679688 -1.09375 3.796875 -1.09375 L 4 -1.09375 C 4.113281 -1.09375 4.171875 -1.148438 4.171875 -1.265625 L 4.171875 -7.234375 C 4.171875 -7.347656 4.113281 -7.40625 4 -7.40625 L 3.796875 -7.40625 C 3.679688 -7.40625 3.625 -7.460938 3.625 -7.578125 L 3.625 -7.78125 C 3.625 -7.894531 3.566406 -7.953125 3.453125 -7.953125 L 3.265625 -7.953125 C 3.148438 -7.953125 3.09375 -7.894531 3.09375 -7.78125 Z M 3.09375 -7.78125 "/></g></g></g><g fill="#2b2b2b" fill-opacity="1"><g transform="translate(285.030889, 206.141696)"><g><path d="M 0.640625 -0.171875 L 0.640625 -6.140625 C 0.640625 -6.253906 0.695312 -6.3125 0.8125 -6.3125 L 1.109375 -6.3125 C 1.222656 -6.3125 1.28125 -6.367188 1.28125 -6.484375 L 1.28125 -6.6875 C 1.28125 -6.800781 1.335938 -6.859375 1.453125 -6.859375 L 1.65625 -6.859375 C 1.769531 -6.859375 1.828125 -6.914062 1.828125 -7.03125 L 1.828125 -7.234375 C 1.828125 -7.347656 1.882812 -7.40625 2 -7.40625 L 2.203125 -7.40625 C 2.316406 -7.40625 2.375 -7.460938 2.375 -7.578125 L 2.375 -7.78125 C 2.375 -7.894531 2.429688 -7.953125 2.546875 -7.953125 L 2.625 -7.953125 C 2.75 -7.953125 2.8125 -8.007812 2.8125 -8.125 L 2.8125 -8.328125 C 2.8125 -8.441406 2.867188 -8.5 2.984375 -8.5 L 5.90625 -8.5 C 6.019531 -8.5 6.078125 -8.441406 6.078125 -8.328125 L 6.078125 -8.125 C 6.078125 -8.007812 6.132812 -7.953125 6.25 -7.953125 L 6.453125 -7.953125 C 6.566406 -7.953125 6.625 -7.894531 6.625 -7.78125 L 6.625 -0.171875 C 6.625 -0.0546875 6.566406 0 6.453125 0 L 4.34375 0 C 4.226562 0 4.171875 -0.0546875 4.171875 -0.171875 L 4.171875 -3.0625 C 4.171875 -3.175781 4.113281 -3.234375 4 -3.234375 L 3.796875 -3.234375 C 3.679688 -3.234375 3.625 -3.175781 3.625 -3.0625 L 3.625 -2.859375 C 3.625 -2.742188 3.566406 -2.6875 3.453125 -2.6875 L 3.265625 -2.6875 C 3.148438 -2.6875 3.09375 -2.628906 3.09375 -2.515625 L 3.09375 -0.171875 C 3.09375 -0.0546875 3.03125 0 2.90625 0 L 0.8125 0 C 0.695312 0 0.640625 -0.0546875 0.640625 -0.171875 Z M 3.265625 -3.71875 L 3.453125 -3.71875 C 3.566406 -3.71875 3.625 -3.773438 3.625 -3.890625 L 3.625 -4.09375 C 3.625 -4.207031 3.679688 -4.265625 3.796875 -4.265625 L 4 -4.265625 C 4.113281 -4.265625 4.171875 -4.320312 4.171875 -4.4375 L 4.171875 -7.78125 C 4.171875 -7.894531 4.113281 -7.953125 4 -7.953125 L 3.796875 -7.953125 C 3.679688 -7.953125 3.625 -7.894531 3.625 -7.78125 L 3.625 -7.578125 C 3.625 -7.460938 3.566406 -7.40625 3.453125 -7.40625 L 3.265625 -7.40625 C 3.148438 -7.40625 3.09375 -7.347656 3.09375 -7.234375 L 3.09375 -3.890625 C 3.09375 -3.773438 3.148438 -3.71875 3.265625 -3.71875 Z M 3.265625 -3.71875 "/></g></g></g><g fill="#2b2b2b" fill-opacity="1"><g transform="translate(299.547132, 206.141696)"><g><path d="M 1.1875 -0.171875 L 1.1875 -0.375 C 1.1875 -0.488281 1.125 -0.546875 1 -0.546875 L 0.8125 -0.546875 C 0.695312 -0.546875 0.640625 -0.601562 0.640625 -0.71875 L 0.640625 -8.328125 C 0.640625 -8.441406 0.695312 -8.5 0.8125 -8.5 L 2.90625 -8.5 C 3.03125 -8.5 3.09375 -8.441406 3.09375 -8.328125 L 3.09375 -0.71875 C 3.09375 -0.601562 3.148438 -0.546875 3.265625 -0.546875 L 3.515625 -0.546875 C 3.628906 -0.546875 3.6875 -0.601562 3.6875 -0.71875 L 3.6875 -0.921875 C 3.6875 -1.035156 3.75 -1.09375 3.875 -1.09375 L 4.0625 -1.09375 C 4.175781 -1.09375 4.234375 -1.148438 4.234375 -1.265625 L 4.234375 -8.328125 C 4.234375 -8.441406 4.289062 -8.5 4.40625 -8.5 L 6.515625 -8.5 C 6.628906 -8.5 6.6875 -8.441406 6.6875 -8.328125 L 6.6875 -2.34375 C 6.6875 -2.226562 6.628906 -2.171875 6.515625 -2.171875 L 6.21875 -2.171875 C 6.101562 -2.171875 6.046875 -2.113281 6.046875 -2 L 6.046875 -1.8125 C 6.046875 -1.695312 5.988281 -1.640625 5.875 -1.640625 L 5.671875 -1.640625 C 5.554688 -1.640625 5.5 -1.582031 5.5 -1.46875 L 5.5 -1.265625 C 5.5 -1.148438 5.441406 -1.09375 5.328125 -1.09375 L 5.125 -1.09375 C 5.007812 -1.09375 4.953125 -1.035156 4.953125 -0.921875 L 4.953125 -0.71875 C 4.953125 -0.601562 4.894531 -0.546875 4.78125 -0.546875 L 4.6875 -0.546875 C 4.570312 -0.546875 4.515625 -0.488281 4.515625 -0.375 L 4.515625 -0.171875 C 4.515625 -0.0546875 4.457031 0 4.34375 0 L 1.359375 0 C 1.242188 0 1.1875 -0.0546875 1.1875 -0.171875 Z M 1.1875 -0.171875 "/></g></g></g><g clip-path="url(#89f860eb7f)"><path fill="#2b2b2b" d="M 72.082031 159.113281 L 81.6875 159.113281 C 82.574219 159.113281 83.335938 159.515625 83.777344 160.28125 L 95.878906 179.738281 C 96.363281 180.5 97.085938 180.902344 97.96875 180.902344 C 98.855469 180.902344 99.617188 180.5 100.0625 179.738281 L 112.160156 160.28125 C 112.644531 159.515625 113.367188 159.113281 114.253906 159.113281 L 123.859375 159.113281 C 125.226562 159.113281 126.3125 160.238281 126.3125 161.566406 L 126.3125 213.386719 C 126.3125 214.753906 125.1875 215.839844 123.859375 215.839844 L 116.464844 215.839844 C 115.097656 215.839844 114.011719 214.714844 114.011719 213.386719 L 114.011719 187.015625 C 114.011719 185.929688 113.328125 184.964844 112.242188 184.640625 C 111.195312 184.320312 110.070312 184.722656 109.46875 185.648438 L 99.898438 200.160156 C 99.417969 200.882812 98.695312 201.285156 97.851562 201.285156 C 97.003906 201.285156 96.28125 200.882812 95.800781 200.160156 L 86.472656 185.929688 C 85.871094 185.003906 84.785156 184.601562 83.699219 184.921875 C 82.652344 185.246094 81.929688 186.167969 81.929688 187.296875 L 81.929688 213.425781 C 81.929688 214.792969 80.804688 215.878906 79.476562 215.878906 L 72.082031 215.878906 C 70.996094 215.878906 70.03125 215.15625 69.75 214.152344 L 72.039062 214.152344 C 72.804688 214.152344 73.40625 213.546875 73.40625 212.785156 C 73.40625 212.019531 72.804688 211.417969 72.039062 211.417969 L 63.277344 211.417969 C 62.511719 211.417969 61.910156 210.8125 61.910156 210.050781 C 61.910156 209.285156 62.511719 208.683594 63.277344 208.683594 L 75.257812 208.683594 C 76.019531 208.683594 76.625 208.082031 76.625 207.316406 C 76.625 206.550781 76.019531 205.949219 75.257812 205.949219 L 69.347656 205.949219 C 68.582031 205.949219 67.980469 205.347656 67.980469 204.582031 C 67.980469 203.820312 68.582031 203.214844 69.347656 203.214844 L 73.046875 203.214844 C 73.808594 203.214844 74.410156 202.613281 74.410156 201.847656 C 74.410156 201.085938 73.808594 200.480469 73.046875 200.480469 L 67.296875 200.480469 C 66.53125 200.480469 65.929688 199.878906 65.929688 199.113281 C 65.929688 198.351562 66.53125 197.75 67.296875 197.75 L 76.503906 197.75 C 77.265625 197.75 77.871094 197.144531 77.871094 196.382812 C 77.871094 195.617188 77.265625 195.015625 76.503906 195.015625 L 64.160156 195.015625 C 63.398438 195.015625 62.792969 194.410156 62.792969 193.648438 C 62.792969 192.882812 63.398438 192.28125 64.160156 192.28125 L 69.628906 192.28125 C 70.390625 192.28125 70.996094 191.636719 70.996094 190.914062 C 70.996094 190.148438 70.390625 189.546875 69.628906 189.546875 L 66.855469 189.546875 C 66.089844 189.546875 65.488281 188.945312 65.488281 188.179688 C 65.488281 187.417969 66.089844 186.8125 66.855469 186.8125 L 70.152344 186.8125 C 70.914062 186.8125 71.515625 186.210938 71.515625 185.445312 C 71.515625 184.683594 70.914062 184.078125 70.152344 184.078125 L 66.53125 184.078125 C 65.769531 184.078125 65.164062 183.476562 65.164062 182.710938 C 65.164062 181.949219 65.769531 181.34375 66.53125 181.34375 L 74.53125 181.34375 C 75.296875 181.34375 75.898438 180.742188 75.898438 179.980469 C 75.898438 179.214844 75.296875 178.613281 74.53125 178.613281 L 63.71875 178.613281 C 62.953125 178.613281 62.351562 178.007812 62.351562 177.246094 C 62.351562 176.480469 62.953125 175.878906 63.71875 175.878906 L 72.683594 175.878906 C 73.445312 175.878906 74.050781 175.273438 74.050781 174.511719 C 74.050781 173.828125 73.566406 173.265625 72.925781 173.144531 L 66.089844 173.144531 C 65.328125 173.144531 64.722656 172.542969 64.722656 171.777344 C 64.722656 171.011719 65.328125 170.410156 66.089844 170.410156 L 75.214844 170.410156 C 75.375 170.410156 75.539062 170.449219 75.660156 170.492188 L 75.777344 170.492188 C 76.542969 170.492188 77.144531 169.886719 77.144531 169.125 C 77.144531 168.359375 76.542969 167.757812 75.777344 167.757812 L 66.894531 167.757812 C 66.128906 167.757812 65.527344 167.152344 65.527344 166.390625 C 65.527344 165.625 66.128906 165.023438 66.894531 165.023438 L 72.039062 165.023438 C 72.804688 165.023438 73.40625 164.421875 73.40625 163.65625 C 73.40625 162.972656 72.925781 162.410156 72.28125 162.289062 L 65.285156 162.289062 C 64.523438 162.289062 63.917969 161.6875 63.917969 160.921875 C 63.917969 160.160156 64.523438 159.554688 65.285156 159.554688 L 72.082031 159.554688 Z M 51.335938 181.0625 L 52.421875 181.0625 C 53.183594 181.0625 53.789062 181.667969 53.789062 182.429688 C 53.789062 183.195312 53.183594 183.796875 52.421875 183.796875 L 51.335938 183.796875 C 50.570312 183.796875 49.96875 183.195312 49.96875 182.429688 C 49.96875 181.667969 50.570312 181.0625 51.335938 181.0625 Z M 52.179688 203.09375 L 55.113281 203.09375 C 55.878906 203.09375 56.480469 203.699219 56.480469 204.460938 C 56.480469 205.226562 55.878906 205.828125 55.113281 205.828125 L 52.179688 205.828125 C 51.417969 205.828125 50.8125 205.226562 50.8125 204.460938 C 50.8125 203.738281 51.417969 203.09375 52.179688 203.09375 Z M 59.9375 203.09375 L 65.40625 203.09375 C 66.171875 203.09375 66.773438 203.699219 66.773438 204.460938 C 66.773438 205.226562 66.171875 205.828125 65.40625 205.828125 L 59.9375 205.828125 C 59.175781 205.828125 58.574219 205.226562 58.574219 204.460938 C 58.574219 203.738281 59.175781 203.09375 59.9375 203.09375 Z M 55.917969 181.0625 L 61.75 181.0625 C 62.511719 181.0625 63.117188 181.667969 63.117188 182.429688 C 63.117188 183.195312 62.511719 183.796875 61.75 183.796875 L 55.917969 183.796875 C 55.15625 183.796875 54.550781 183.195312 54.550781 182.429688 C 54.550781 181.667969 55.15625 181.0625 55.917969 181.0625 Z M 60.542969 186.570312 L 62.632812 186.570312 C 63.398438 186.570312 64 187.175781 64 187.9375 C 64 188.703125 63.398438 189.304688 62.632812 189.304688 L 60.542969 189.304688 C 59.777344 189.304688 59.175781 188.703125 59.175781 187.9375 C 59.175781 187.175781 59.777344 186.570312 60.542969 186.570312 Z M 57.808594 164.621094 L 63.035156 164.621094 C 63.796875 164.621094 64.402344 165.222656 64.402344 165.988281 C 64.402344 166.753906 63.796875 167.355469 63.035156 167.355469 L 57.808594 167.355469 C 57.042969 167.355469 56.441406 166.753906 56.441406 165.988281 C 56.402344 165.222656 57.042969 164.621094 57.808594 164.621094 Z M 56.359375 192.078125 L 59.738281 192.078125 C 60.503906 192.078125 61.105469 192.683594 61.105469 193.445312 C 61.105469 194.210938 60.503906 194.8125 59.738281 194.8125 L 56.359375 194.8125 C 55.597656 194.8125 54.996094 194.210938 54.996094 193.445312 C 54.996094 192.683594 55.597656 192.078125 56.359375 192.078125 Z M 56.359375 192.078125 " fill-opacity="1" fill-rule="evenodd"/></g></svg>