<svg xmlns="http://www.w3.org/2000/svg" xmlns:xlink="http://www.w3.org/1999/xlink" width="500" zoomAndPan="magnify" viewBox="0 0 375 374.999991" height="500" preserveAspectRatio="xMidYMid meet" version="1.0"><defs><clipPath id="5edca5804a"><path d="M 88.242188 113.84375 L 286.992188 113.84375 L 286.992188 260.84375 L 88.242188 260.84375 Z M 88.242188 113.84375 " clip-rule="nonzero"/></clipPath></defs><g clip-path="url(#5edca5804a)"><path fill="#2b2b2b" d="M 145.820312 113.84375 L 170.753906 113.84375 C 173.050781 113.84375 175.03125 114.886719 176.179688 116.867188 L 207.582031 167.359375 C 208.832031 169.34375 210.710938 170.386719 213.007812 170.386719 C 215.300781 170.386719 217.285156 169.34375 218.429688 167.359375 L 249.832031 116.867188 C 251.085938 114.886719 252.960938 113.84375 255.257812 113.84375 L 280.191406 113.84375 C 283.738281 113.84375 286.554688 116.761719 286.554688 120.207031 L 286.554688 254.679688 C 286.554688 258.226562 283.632812 261.042969 280.191406 261.042969 L 260.996094 261.042969 C 257.449219 261.042969 254.632812 258.121094 254.632812 254.679688 L 254.632812 186.242188 C 254.632812 183.425781 252.859375 180.921875 250.042969 180.085938 C 247.328125 179.253906 244.40625 180.296875 242.84375 182.695312 L 218.015625 220.355469 C 216.761719 222.234375 214.882812 223.277344 212.695312 223.277344 C 210.503906 223.277344 208.625 222.234375 207.371094 220.355469 L 183.171875 183.425781 C 181.605469 181.027344 178.789062 179.984375 175.972656 180.816406 C 173.257812 181.652344 171.382812 184.050781 171.382812 186.972656 L 171.382812 254.78125 C 171.382812 258.328125 168.460938 261.148438 165.019531 261.148438 L 145.820312 261.148438 C 143.003906 261.148438 140.5 259.269531 139.769531 256.660156 L 145.71875 256.660156 C 147.699219 256.660156 149.265625 255.097656 149.265625 253.113281 C 149.265625 251.132812 147.699219 249.566406 145.71875 249.566406 L 122.976562 249.566406 C 120.992188 249.566406 119.429688 248 119.429688 246.019531 C 119.429688 244.039062 120.992188 242.472656 122.976562 242.472656 L 154.0625 242.472656 C 156.046875 242.472656 157.609375 240.90625 157.609375 238.925781 C 157.609375 236.945312 156.046875 235.378906 154.0625 235.378906 L 138.726562 235.378906 C 136.746094 235.378906 135.179688 233.8125 135.179688 231.832031 C 135.179688 229.851562 136.746094 228.285156 138.726562 228.285156 L 148.324219 228.285156 C 150.308594 228.285156 151.871094 226.71875 151.871094 224.738281 C 151.871094 222.753906 150.308594 221.191406 148.324219 221.191406 L 133.40625 221.191406 C 131.425781 221.191406 129.859375 219.625 129.859375 217.644531 C 129.859375 215.660156 131.425781 214.097656 133.40625 214.097656 L 157.296875 214.097656 C 159.28125 214.097656 160.84375 212.53125 160.84375 210.550781 C 160.84375 208.566406 159.28125 207.003906 157.296875 207.003906 L 125.269531 207.003906 C 123.289062 207.003906 121.722656 205.4375 121.722656 203.457031 C 121.722656 201.472656 123.289062 199.910156 125.269531 199.910156 L 139.457031 199.910156 C 141.441406 199.910156 143.003906 198.238281 143.003906 196.363281 C 143.003906 194.378906 141.441406 192.816406 139.457031 192.816406 L 132.261719 192.816406 C 130.277344 192.816406 128.714844 191.25 128.714844 189.269531 C 128.714844 187.285156 130.277344 185.722656 132.261719 185.722656 L 140.816406 185.722656 C 142.796875 185.722656 144.363281 184.15625 144.363281 182.171875 C 144.363281 180.191406 142.796875 178.625 140.816406 178.625 L 131.425781 178.625 C 129.445312 178.625 127.878906 177.0625 127.878906 175.078125 C 127.878906 173.097656 129.445312 171.53125 131.425781 171.53125 L 152.1875 171.53125 C 154.167969 171.53125 155.734375 169.96875 155.734375 167.984375 C 155.734375 166.003906 154.167969 164.4375 152.1875 164.4375 L 124.121094 164.4375 C 122.140625 164.4375 120.574219 162.875 120.574219 160.890625 C 120.574219 158.910156 122.140625 157.34375 124.121094 157.34375 L 147.386719 157.34375 C 149.371094 157.34375 150.933594 155.78125 150.933594 153.796875 C 150.933594 152.023438 149.683594 150.5625 148.011719 150.25 L 130.277344 150.25 C 128.296875 150.25 126.730469 148.6875 126.730469 146.703125 C 126.730469 144.722656 128.296875 143.15625 130.277344 143.15625 L 153.960938 143.15625 C 154.375 143.15625 154.792969 143.261719 155.105469 143.367188 L 155.417969 143.367188 C 157.402344 143.367188 158.96875 141.800781 158.96875 139.820312 C 158.96875 137.835938 157.402344 136.269531 155.417969 136.269531 L 132.363281 136.269531 C 130.382812 136.269531 128.816406 134.707031 128.816406 132.722656 C 128.816406 130.742188 130.382812 129.175781 132.363281 129.175781 L 145.71875 129.175781 C 147.699219 129.175781 149.265625 127.613281 149.265625 125.628906 C 149.265625 123.855469 148.011719 122.394531 146.34375 122.082031 L 128.191406 122.082031 C 126.210938 122.082031 124.644531 120.519531 124.644531 118.535156 C 124.644531 116.554688 126.210938 114.988281 128.191406 114.988281 L 145.820312 114.988281 Z M 91.992188 170.800781 L 94.808594 170.800781 C 96.789062 170.800781 98.355469 172.367188 98.355469 174.347656 C 98.355469 176.332031 96.789062 177.898438 94.808594 177.898438 L 91.992188 177.898438 C 90.007812 177.898438 88.445312 176.332031 88.445312 174.347656 C 88.445312 172.367188 90.007812 170.800781 91.992188 170.800781 Z M 94.183594 227.972656 L 101.796875 227.972656 C 103.78125 227.972656 105.34375 229.535156 105.34375 231.519531 C 105.34375 233.5 103.78125 235.066406 101.796875 235.066406 L 94.183594 235.066406 C 92.199219 235.066406 90.636719 233.5 90.636719 231.519531 C 90.636719 229.640625 92.199219 227.972656 94.183594 227.972656 Z M 114.316406 227.972656 L 128.503906 227.972656 C 130.488281 227.972656 132.050781 229.535156 132.050781 231.519531 C 132.050781 233.5 130.488281 235.066406 128.503906 235.066406 L 114.316406 235.066406 C 112.335938 235.066406 110.769531 233.5 110.769531 231.519531 C 110.769531 229.640625 112.335938 227.972656 114.316406 227.972656 Z M 103.882812 170.800781 L 119.011719 170.800781 C 120.992188 170.800781 122.558594 172.367188 122.558594 174.347656 C 122.558594 176.332031 120.992188 177.898438 119.011719 177.898438 L 103.882812 177.898438 C 101.902344 177.898438 100.335938 176.332031 100.335938 174.347656 C 100.335938 172.367188 101.902344 170.800781 103.882812 170.800781 Z M 115.882812 185.09375 L 121.304688 185.09375 C 123.289062 185.09375 124.851562 186.660156 124.851562 188.640625 C 124.851562 190.625 123.289062 192.1875 121.304688 192.1875 L 115.882812 192.1875 C 113.898438 192.1875 112.335938 190.625 112.335938 188.640625 C 112.335938 186.660156 113.898438 185.09375 115.882812 185.09375 Z M 108.789062 128.132812 L 122.347656 128.132812 C 124.332031 128.132812 125.894531 129.699219 125.894531 131.679688 C 125.894531 133.664062 124.332031 135.226562 122.347656 135.226562 L 108.789062 135.226562 C 106.804688 135.226562 105.242188 133.664062 105.242188 131.679688 C 105.136719 129.699219 106.804688 128.132812 108.789062 128.132812 Z M 105.03125 199.386719 L 113.792969 199.386719 C 115.777344 199.386719 117.34375 200.953125 117.34375 202.933594 C 117.34375 204.917969 115.777344 206.480469 113.792969 206.480469 L 105.03125 206.480469 C 103.050781 206.480469 101.484375 204.917969 101.484375 202.933594 C 101.484375 200.953125 103.050781 199.386719 105.03125 199.386719 Z M 105.03125 199.386719 " fill-opacity="1" fill-rule="evenodd"/></g></svg>